# Wavefront OBJ file written 2026-08-28T11:01:23
o sphere_moved_edgeMesh

# points : 342
# lines  : 342

# <points count="342">
v 27.4999 0.00918543 0
v 27.5 0 0
v 27.4987 0.0367107 0
v 27.4992 0.0275439 0
v 27.4997 0.0183678 0
v 27.4959 0.0641245 0
v 27.497 0.0550041 0
v 27.4916 0.0913436 0
v 27.4932 0.0822973 0
v 27.4898 0.100359 0
v 27.4946 0.0732233 0
v 27.4979 0.0458652 0
v 27.4836 0.12719 0
v 27.4858 0.118285 0
v 27.4786 0.144868 0
v 27.4811 0.136052 0
v 27.4698 0.17101 0
v 27.4729 0.16235 0
v 27.4632 0.188155 0
v 27.4666 0.179613 0
v 27.4597 0.196633 0
v 27.4758 0.153635 0
v 27.4879 0.109341 0
v 27.4482 0.221659 0
v 27.4522 0.213388 0
v 27.4397 0.237974 0
v 27.444 0.229855 0
v 27.426 0.261836 0
v 27.4307 0.253967 0
v 27.4109 0.284904 0
v 27.4161 0.277308 0
v 27.4056 0.292404 0
v 27.4211 0.269618 0
v 27.4353 0.246012 0
v 27.3889 0.314303 0
v 27.3946 0.307106 0
v 27.3771 0.328376 0
v 27.383 0.321394 0
v 27.371 0.335247 0
v 27.3519 0.355174 0
v 27.3584 0.348648 0
v 27.3318 0.374021 0
v 27.3386 0.367862 0
v 27.3249 0.380054 0
v 27.3453 0.361579 0
v 27.3647 0.342006 0
v 27.4001 0.299806 0
v 27.456 0.205045 0
v 27.3035 0.397375 0
v 27.3107 0.391733 0
v 27.2887 0.408255 0
v 27.2961 0.402883 0
v 27.2657 0.423537 0
v 27.2735 0.418583 0
v 27.242 0.437532 0
v 27.25 0.433013 0
v 27.2339 0.441904 0
v 27.2579 0.428347 0
v 27.2811 0.413489 0
v 27.2092 0.45412 0
v 27.2175 0.450199 0
v 27.2008 0.457887 0
v 27.1924 0.461499 0
v 27.2258 0.446127 0
v 27.1753 0.468256 0
v 27.1839 0.464956 0
v 27.158 0.47438 0
v 27.1667 0.471397 0
v 27.1405 0.479864 0
v 27.1493 0.477203 0
v 27.1316 0.482363 0
v 27.3179 0.385958 0
v 27.1227 0.4847 0
v 27.0959 0.490726 0
v 27.1049 0.488882 0
v 27.1138 0.486873 0
v 27.0687 0.495261 0
v 27.0778 0.493916 0
v 27.0504 0.49745 0
v 27.0596 0.496439 0
v 27.0321 0.498967 0
v 27.0413 0.498292 0
v 27.0868 0.492404 0
v 27.0046 0.499979 0
v 27.0138 0.49981 0
v 26.9862 0.49981 0
v 26.9954 0.499979 0
v 26.9587 0.498292 0
v 26.9679 0.498967 0
v 26.9404 0.496439 0
v 26.9496 0.49745 0
v 26.9222 0.493916 0
v 26.9313 0.495261 0
v 26.977 0.499473 0
v 27.023 0.499473 0
v 26.8951 0.488882 0
v 26.9041 0.490726 0
v 26.8773 0.4847 0
v 26.8862 0.486873 0
v 26.8507 0.477203 0
v 26.8595 0.479864 0
v 26.8247 0.468256 0
v 26.8333 0.471397 0
v 26.8161 0.464956 0
v 26.842 0.47438 0
v 26.8684 0.482363 0
v 26.7908 0.45412 0
v 26.7992 0.457887 0
v 26.7742 0.446127 0
v 26.7825 0.450199 0
v 26.758 0.437532 0
v 26.7661 0.441904 0
v 26.7421 0.428347 0
v 26.75 0.433013 0
v 26.7189 0.413489 0
v 26.7265 0.418583 0
v 26.7113 0.408255 0
v 26.7343 0.423537 0
v 26.8076 0.461499 0
v 26.9132 0.492404 0
v 26.6893 0.391733 0
v 26.6965 0.397375 0
v 26.6682 0.374021 0
v 26.6751 0.380054 0
v 26.6821 0.385958 0
v 26.6547 0.361579 0
v 26.6614 0.367862 0
v 26.6353 0.342006 0
v 26.6416 0.348648 0
v 26.629 0.335247 0
v 26.6481 0.355174 0
v 26.6111 0.314303 0
v 26.617 0.321394 0
v 26.5944 0.292404 0
v 26.5999 0.299806 0
v 26.5891 0.284904 0
v 26.6054 0.307106 0
v 26.574 0.261836 0
v 26.5789 0.269618 0
v 26.5647 0.246012 0
v 26.5693 0.253967 0
v 26.5603 0.237974 0
v 26.5839 0.277308 0
v 26.6229 0.328376 0
v 26.5478 0.213388 0
v 26.5518 0.221659 0
v 26.5368 0.188155 0
v 26.5403 0.196633 0
v 26.544 0.205045 0
v 26.5302 0.17101 0
v 26.5334 0.179613 0
v 26.5214 0.144868 0
v 26.5242 0.153635 0
v 26.5189 0.136052 0
v 26.5271 0.16235 0
v 26.5121 0.109341 0
v 26.5142 0.118285 0
v 26.5068 0.0822973 0
v 26.5084 0.0913436 0
v 26.5054 0.0732233 0
v 26.5102 0.100359 0
v 26.5021 0.0458652 0
v 26.503 0.0550041 0
v 26.5003 0.0183678 0
v 26.5008 0.0275439 0
v 26.5001 0.00918543 0
v 26.5013 0.0367107 0
v 26.5041 0.0641245 0
v 26.5164 0.12719 0
v 26.556 0.229855 0
v 26.7039 0.402883 0
v 26.5 0 0
v 26.5008 -0.0275439 0
v 26.5003 -0.0183678 0
v 26.503 -0.0550041 0
v 26.5021 -0.0458652 0
v 26.5013 -0.0367107 0
v 26.5054 -0.0732233 0
v 26.5041 -0.0641245 0
v 26.5102 -0.100359 0
v 26.5084 -0.0913436 0
v 26.5121 -0.109341 0
v 26.5068 -0.0822973 0
v 26.5189 -0.136052 0
v 26.5164 -0.12719 0
v 26.5271 -0.16235 0
v 26.5242 -0.153635 0
v 26.5214 -0.144868 0
v 26.5368 -0.188155 0
v 26.5334 -0.179613 0
v 26.5403 -0.196633 0
v 26.544 -0.205045 0
v 26.5302 -0.17101 0
v 26.5142 -0.118285 0
v 26.556 -0.229855 0
v 26.5518 -0.221659 0
v 26.5693 -0.253967 0
v 26.5647 -0.246012 0
v 26.5603 -0.237974 0
v 26.5789 -0.269618 0
v 26.574 -0.261836 0
v 26.5944 -0.292404 0
v 26.5891 -0.284904 0
v 26.5999 -0.299806 0
v 26.5839 -0.277308 0
v 26.617 -0.321394 0
v 26.6111 -0.314303 0
v 26.629 -0.335247 0
v 26.6229 -0.328376 0
v 26.6416 -0.348648 0
v 26.6353 -0.342006 0
v 26.6547 -0.361579 0
v 26.6481 -0.355174 0
v 26.6751 -0.380054 0
v 26.6682 -0.374021 0
v 26.6821 -0.385958 0
v 26.6614 -0.367862 0
v 26.6054 -0.307106 0
v 26.5478 -0.213388 0
v 26.5001 -0.00918543 0
v 26.7039 -0.402883 0
v 26.6965 -0.397375 0
v 26.7265 -0.418583 0
v 26.7189 -0.413489 0
v 26.7113 -0.408255 0
v 26.7421 -0.428347 0
v 26.7343 -0.423537 0
v 26.7661 -0.441904 0
v 26.758 -0.437532 0
v 26.7742 -0.446127 0
v 26.75 -0.433013 0
v 26.7992 -0.457887 0
v 26.7908 -0.45412 0
v 26.8076 -0.461499 0
v 26.7825 -0.450199 0
v 26.8247 -0.468256 0
v 26.8161 -0.464956 0
v 26.842 -0.47438 0
v 26.8333 -0.471397 0
v 26.8595 -0.479864 0
v 26.8507 -0.477203 0
v 26.8684 -0.482363 0
v 26.6893 -0.391733 0
v 26.8773 -0.4847 0
v 26.9041 -0.490726 0
v 26.8951 -0.488882 0
v 26.8862 -0.486873 0
v 26.9313 -0.495261 0
v 26.9222 -0.493916 0
v 26.9496 -0.49745 0
v 26.9404 -0.496439 0
v 26.9679 -0.498967 0
v 26.9587 -0.498292 0
v 26.9132 -0.492404 0
v 26.9954 -0.499979 0
v 26.9862 -0.49981 0
v 27.0138 -0.49981 0
v 27.0046 -0.499979 0
v 27.0413 -0.498292 0
v 27.0321 -0.498967 0
v 27.0596 -0.496439 0
v 27.0504 -0.49745 0
v 27.0778 -0.493916 0
v 27.0687 -0.495261 0
v 27.023 -0.499473 0
v 26.977 -0.499473 0
v 27.1049 -0.488882 0
v 27.0959 -0.490726 0
v 27.1227 -0.4847 0
v 27.1138 -0.486873 0
v 27.1493 -0.477203 0
v 27.1405 -0.479864 0
v 27.1753 -0.468256 0
v 27.1667 -0.471397 0
v 27.1839 -0.464956 0
v 27.158 -0.47438 0
v 27.1316 -0.482363 0
v 27.2092 -0.45412 0
v 27.2008 -0.457887 0
v 27.2258 -0.446127 0
v 27.2175 -0.450199 0
v 27.242 -0.437532 0
v 27.2339 -0.441904 0
v 27.2579 -0.428347 0
v 27.25 -0.433013 0
v 27.2811 -0.413489 0
v 27.2735 -0.418583 0
v 27.2887 -0.408255 0
v 27.2657 -0.423537 0
v 27.1924 -0.461499 0
v 27.0868 -0.492404 0
v 27.3107 -0.391733 0
v 27.3035 -0.397375 0
v 27.3318 -0.374021 0
v 27.3249 -0.380054 0
v 27.3179 -0.385958 0
v 27.3453 -0.361579 0
v 27.3386 -0.367862 0
v 27.3647 -0.342006 0
v 27.3584 -0.348648 0
v 27.371 -0.335247 0
v 27.3519 -0.355174 0
v 27.3889 -0.314303 0
v 27.383 -0.321394 0
v 27.4056 -0.292404 0
v 27.4001 -0.299806 0
v 27.4109 -0.284904 0
v 27.3946 -0.307106 0
v 27.426 -0.261836 0
v 27.4211 -0.269618 0
v 27.4353 -0.246012 0
v 27.4307 -0.253967 0
v 27.4397 -0.237974 0
v 27.4161 -0.277308 0
v 27.3771 -0.328376 0
v 27.4522 -0.213388 0
v 27.4482 -0.221659 0
v 27.4632 -0.188155 0
v 27.4597 -0.196633 0
v 27.456 -0.205045 0
v 27.4698 -0.17101 0
v 27.4666 -0.179613 0
v 27.4786 -0.144868 0
v 27.4758 -0.153635 0
v 27.4811 -0.136052 0
v 27.4729 -0.16235 0
v 27.4879 -0.109341 0
v 27.4858 -0.118285 0
v 27.4932 -0.0822973 0
v 27.4916 -0.0913436 0
v 27.4946 -0.0732233 0
v 27.4898 -0.100359 0
v 27.4979 -0.0458652 0
v 27.497 -0.0550041 0
v 27.4997 -0.0183678 0
v 27.4992 -0.0275439 0
v 27.4999 -0.00918543 0
v 27.4987 -0.0367107 0
v 27.4959 -0.0641245 0
v 27.4836 -0.12719 0
v 27.444 -0.229855 0
v 27.2961 -0.402883 0
# </points>

# <edges count="342">
l 1 2
l 3 4
l 4 5
l 6 7
l 8 9
l 10 8
l 11 6
l 7 12
l 13 14
l 15 16
l 16 13
l 17 18
l 19 20
l 21 19
l 18 22
l 23 10
l 24 25
l 26 27
l 27 24
l 28 29
l 30 31
l 32 30
l 33 28
l 29 34
l 35 36
l 37 38
l 39 37
l 38 35
l 40 41
l 42 43
l 44 42
l 45 40
l 41 46
l 47 32
l 48 21
l 5 1
l 12 3
l 14 23
l 22 15
l 9 11
l 49 50
l 51 52
l 52 49
l 53 54
l 55 56
l 57 55
l 58 53
l 54 59
l 60 61
l 20 17
l 62 60
l 63 62
l 64 57
l 65 66
l 67 68
l 69 70
l 68 65
l 71 69
l 72 44
l 73 71
l 74 75
l 76 73
l 77 78
l 79 80
l 81 82
l 80 77
l 83 74
l 84 85
l 86 87
l 88 89
l 90 91
l 92 93
l 91 88
l 94 86
l 95 81
l 96 97
l 98 99
l 99 96
l 100 101
l 102 103
l 104 102
l 105 100
l 101 106
l 107 108
l 109 110
l 111 112
l 110 107
l 113 114
l 115 116
l 117 115
l 116 118
l 114 111
l 119 104
l 120 92
l 121 122
l 123 124
l 125 121
l 126 127
l 128 129
l 130 128
l 129 131
l 127 123
l 132 133
l 134 135
l 136 134
l 137 132
l 138 139
l 140 141
l 142 140
l 141 138
l 143 136
l 133 144
l 145 146
l 147 148
l 149 145
l 150 151
l 152 153
l 154 152
l 153 155
l 151 147
l 156 157
l 158 159
l 160 158
l 161 156
l 162 163
l 164 165
l 166 164
l 167 162
l 168 160
l 157 169
l 146 170
l 122 171
l 172 166
l 25 48
l 34 26
l 31 33
l 36 47
l 46 39
l 43 45
l 50 72
l 56 58
l 59 51
l 61 64
l 66 63
l 70 67
l 75 76
l 85 95
l 82 79
l 89 94
l 93 90
l 87 84
l 78 83
l 103 105
l 106 98
l 108 119
l 112 109
l 118 113
l 171 117
l 124 125
l 144 130
l 131 126
l 135 137
l 139 143
l 170 142
l 148 149
l 155 150
l 169 154
l 163 168
l 165 167
l 159 161
l 97 120
l 173 174
l 175 176
l 177 173
l 178 179
l 180 181
l 182 180
l 181 183
l 179 175
l 184 185
l 186 187
l 188 184
l 189 190
l 191 189
l 192 191
l 193 186
l 185 194
l 195 196
l 197 198
l 199 195
l 200 201
l 202 203
l 204 202
l 203 205
l 201 197
l 206 207
l 208 209
l 210 211
l 209 206
l 212 213
l 214 215
l 216 214
l 215 217
l 213 210
l 207 218
l 196 219
l 220 172
l 174 220
l 176 177
l 194 182
l 187 188
l 183 178
l 221 222
l 223 224
l 225 221
l 226 227
l 228 229
l 230 228
l 229 231
l 227 223
l 232 233
l 190 193
l 234 232
l 233 235
l 236 237
l 238 239
l 240 241
l 239 236
l 242 240
l 222 243
l 244 242
l 245 246
l 247 244
l 248 249
l 250 251
l 252 253
l 251 248
l 254 245
l 255 256
l 257 258
l 259 260
l 261 262
l 263 264
l 262 259
l 265 257
l 266 252
l 267 268
l 269 270
l 270 267
l 271 272
l 273 274
l 275 273
l 276 271
l 272 277
l 278 279
l 280 281
l 282 283
l 281 278
l 284 285
l 286 287
l 288 286
l 287 289
l 285 282
l 290 275
l 291 263
l 292 293
l 294 295
l 296 292
l 297 298
l 299 300
l 301 299
l 300 302
l 298 294
l 303 304
l 305 306
l 307 305
l 308 303
l 309 310
l 311 312
l 313 311
l 312 309
l 314 307
l 304 315
l 316 317
l 318 319
l 320 316
l 321 322
l 323 324
l 325 323
l 324 326
l 322 318
l 327 328
l 329 330
l 331 329
l 332 327
l 333 334
l 335 336
l 337 335
l 338 333
l 339 331
l 328 340
l 317 341
l 293 342
l 2 337
l 219 192
l 198 199
l 205 200
l 218 204
l 211 208
l 217 212
l 224 225
l 231 226
l 243 216
l 235 230
l 237 234
l 241 238
l 246 247
l 249 254
l 253 250
l 258 255
l 256 266
l 260 265
l 264 261
l 268 291
l 277 269
l 274 276
l 279 290
l 283 280
l 289 284
l 342 288
l 302 297
l 315 301
l 295 296
l 306 308
l 310 314
l 341 313
l 319 320
l 330 332
l 340 325
l 334 339
l 336 338
l 326 321
# </edges>
