v 27.4999 0.00918543 0
v 27.5107 -0.990756 0
l 1 2
v 27.4987 0.0367107 0
v 27.5533 -0.961795 0
l 3 4
v 27.4992 0.0275439 0
v 27.5536 -0.970976 0
l 5 6
v 27.4959 0.0641245 0
v 27.6157 -0.928674 0
l 7 8
v 27.4916 0.0913436 0
v 27.6658 -0.893368 0
l 9 10
v 27.4898 0.100359 0
v 27.6856 -0.880275 0
l 11 12
v 27.4946 0.0732233 0
v 27.6359 -0.91674 0
l 13 14
v 27.497 0.0550041 0
v 27.595 -0.940179 0
l 15 16
v 27.4836 0.12719 0
v 27.7234 -0.843643 0
l 17 18
v 27.4786 0.144868 0
v 27.7515 -0.817182 0
l 19 20
v 27.4811 0.136052 0
v 27.7527 -0.826369 0
l 21 22
v 27.4698 0.17101 0
v 27.8068 -0.770505 0
l 23 24
v 27.4632 0.188155 0
v 27.8331 -0.74092 0
l 25 26
v 27.4597 0.196633 0
v 27.8413 -0.727698 0
l 27 28
v 27.4729 0.16235 0
v 27.7886 -0.786524 0
l 29 30
v 27.4879 0.109341 0
v 27.6948 -0.869016 0
l 31 32
v 27.4482 0.221659 0
v 27.8836 -0.678602 0
l 33 34
v 27.4397 0.237974 0
v 27.9078 -0.645689 0
l 35 36
v 27.444 0.229855 0
v 27.9001 -0.660099 0
l 37 38
v 27.426 0.261836 0
v 27.9388 -0.596699 0
l 39 40
v 27.4109 0.284904 0
v 27.9757 -0.540294 0
l 41 42
v 27.4056 0.292404 0
v 27.9827 -0.524235 0
l 43 44
v 27.4211 0.269618 0
v 27.9539 -0.576605 0
l 45 46
v 27.4307 0.253967 0
v 27.9313 -0.611695 0
l 47 48
v 27.3889 0.314303 0
v 28.0097 -0.469662 0
l 49 50
v 27.3771 0.328376 0
v 28.0225 -0.435464 0
l 51 52
v 27.371 0.335247 0
v 28.0349 -0.412587 0
l 53 54
v 27.383 0.321394 0
v 28.0227 -0.447244 0
l 55 56
v 27.3519 0.355174 0
v 28.0576 -0.353329 0
l 57 58
v 27.3318 0.374021 0
v 28.073 -0.297306 0
l 59 60
v 27.3249 0.380054 0
v 28.0778 -0.27813 0
l 61 62
v 27.3453 0.361579 0
v 28.0629 -0.334878 0
l 63 64
v 27.3584 0.348648 0
v 28.0466 -0.376893 0
l 65 66
v 27.4001 0.299806 0
v 27.9964 -0.502925 0
l 67 68
v 27.456 0.205045 0
v 27.8586 -0.710311 0
l 69 70
v 27.4997 0.0183678 0
v 27.5215 -0.981394 0
l 71 72
v 27.4979 0.0458652 0
v 27.5849 -0.950346 0
l 73 74
v 27.4858 0.118285 0
v 27.7144 -0.855241 0
l 75 76
v 27.4758 0.153635 0
v 27.78 -0.798961 0
l 77 78
v 27.4932 0.0822973 0
v 27.6457 -0.906009 0
l 79 80
v 27.3035 0.397375 0
v 28.0906 -0.219409 0
l 81 82
v 27.2887 0.408255 0
v 28.098 -0.179189 0
l 83 84
v 27.2961 0.402883 0
v 28.0982 -0.194272 0
l 85 86
v 27.2657 0.423537 0
v 28.1099 -0.112543 0
l 87 88
v 27.242 0.437532 0
v 28.1127 -0.0543276 0
l 89 90
v 27.2339 0.441904 0
v 28.1139 -0.0330536 0
l 91 92
v 27.2579 0.428347 0
v 28.109 -0.0965837 0
l 93 94
v 27.2735 0.418583 0
v 28.1041 -0.13824 0
l 95 96
v 27.2092 0.45412 0
v 28.1134 0.0270078 0
l 97 98
v 27.4666 0.179613 0
v 27.8153 -0.75763 0
l 99 100
v 27.2008 0.457887 0
v 28.1132 0.048697 0
l 101 102
v 27.1924 0.461499 0
v 28.1111 0.0664687 0
l 103 104
v 27.2258 0.446127 0
v 28.1125 -0.0161496 0
l 105 106
v 27.1753 0.468256 0
v 28.1089 0.110012 0
l 107 108
v 27.158 0.47438 0
v 28.1039 0.150025 0
l 109 110
v 27.1405 0.479864 0
v 28.0977 0.190437 0
l 111 112
v 27.1667 0.471397 0
v 28.106 0.128337 0
l 113 114
v 27.1316 0.482363 0
v 28.0944 0.212024 0
l 115 116
v 27.3179 0.385958 0
v 28.0823 -0.25877 0
l 117 118
v 27.1227 0.4847 0
v 28.0899 0.230716 0
l 119 120
v 27.0959 0.490726 0
v 28.0756 0.290025 0
l 121 122
v 27.1138 0.486873 0
v 28.0853 0.249675 0
l 123 124
v 27.0687 0.495261 0
v 28.058 0.349046 0
l 125 126
v 27.0504 0.49745 0
v 28.0444 0.38823 0
l 127 128
v 27.0321 0.498967 0
v 28.0294 0.425788 0
l 129 130
v 27.0596 0.496439 0
v 28.0513 0.368059 0
l 131 132
v 27.0868 0.492404 0
v 28.0702 0.311063 0
l 133 134
v 27.0046 0.499979 0
v 28.0044 0.481613 0
l 135 136
v 26.9862 0.49981 0
v 27.986 0.518176 0
l 137 138
v 26.9587 0.498292 0
v 27.956 0.571471 0
l 139 140
v 26.9404 0.496439 0
v 27.9344 0.605659 0
l 141 142
v 26.9222 0.493916 0
v 27.9115 0.640131 0
l 143 144
v 26.9496 0.49745 0
v 27.9453 0.589585 0
l 145 146
v 26.977 0.499473 0
v 27.9763 0.536075 0
l 147 148
v 27.023 0.499473 0
v 28.0215 0.443953 0
l 149 150
v 26.8951 0.488882 0
v 27.8748 0.689583 0
l 151 152
v 26.8773 0.4847 0
v 27.8488 0.721898 0
l 153 154
v 26.8862 0.486873 0
v 27.8617 0.707071 0
l 155 156
v 26.8507 0.477203 0
v 27.8079 0.76663 0
l 157 158
v 26.8247 0.468256 0
v 27.764 0.811316 0
l 159 160
v 26.8161 0.464956 0
v 27.7497 0.8232 0
l 161 162
v 26.842 0.47438 0
v 27.7932 0.782981 0
l 163 164
v 26.8595 0.479864 0
v 27.8223 0.750203 0
l 165 166
v 26.7908 0.45412 0
v 27.7032 0.86331 0
l 167 168
v 26.7742 0.446127 0
v 27.672 0.886627 0
l 169 170
v 26.758 0.437532 0
v 27.638 0.91249 0
l 171 172
v 26.7825 0.450199 0
v 27.6867 0.877311 0
l 173 174
v 26.7421 0.428347 0
v 27.6031 0.936889 0
l 175 176
v 26.7189 0.413489 0
v 27.5495 0.970312 0
l 177 178
v 26.7113 0.408255 0
v 27.5349 0.975406 0
l 179 180
v 26.7265 0.418583 0
v 27.5707 0.954663 0
l 181 182
v 26.75 0.433013 0
v 27.6207 0.924873 0
l 183 184
v 26.8076 0.461499 0
v 27.7339 0.838269 0
l 185 186
v 26.9132 0.492404 0
v 27.8994 0.658101 0
l 187 188
v 26.6893 0.391733 0
v 27.4764 1.00852 0
l 189 190
v 26.6682 0.374021 0
v 27.4211 1.03221 0
l 191 192
v 26.6821 0.385958 0
v 27.4622 1.01163 0
l 193 194
v 26.6547 0.361579 0
v 27.3842 1.04559 0
l 195 196
v 26.6353 0.342006 0
v 27.3235 1.06755 0
l 197 198
v 26.629 0.335247 0
v 27.3108 1.06676 0
l 199 200
v 26.6416 0.348648 0
v 27.3473 1.05715 0
l 201 202
v 26.6614 0.367862 0
v 27.4026 1.03919 0
l 203 204
v 26.6111 0.314303 0
v 27.2508 1.08294 0
l 205 206
v 26.5944 0.292404 0
v 27.1907 1.09513 0
l 207 208
v 26.5891 0.284904 0
v 27.1662 1.10154 0
l 209 210
v 26.6054 0.307106 0
v 27.2262 1.09107 0
l 211 212
v 26.574 0.261836 0
v 27.1068 1.10806 0
l 213 214
v 26.5647 0.246012 0
v 27.0653 1.11167 0
l 215 216
v 26.5603 0.237974 0
v 27.0403 1.11523 0
l 217 218
v 26.5693 0.253967 0
v 27.0821 1.1125 0
l 219 220
v 26.5839 0.277308 0
v 27.1487 1.10251 0
l 221 222
v 26.617 0.321394 0
v 27.2624 1.08523 0
l 223 224
v 26.5478 0.213388 0
v 26.9832 1.11365 0
l 225 226
v 26.5368 0.188155 0
v 26.9184 1.11249 0
l 227 228
v 26.544 0.205045 0
v 26.9585 1.11512 0
l 229 230
v 26.5302 0.17101 0
v 26.8789 1.10825 0
l 231 232
v 26.5214 0.144868 0
v 26.8256 1.09746 0
l 233 234
v 26.5189 0.136052 0
v 26.7918 1.0981 0
l 235 236
v 26.5242 0.153635 0
v 26.8399 1.10251 0
l 237 238
v 26.5334 0.179613 0
v 26.9033 1.10869 0
l 239 240
v 26.5121 0.109341 0
v 26.7407 1.08287 0
l 241 242
v 26.5068 0.0822973 0
v 26.681 1.06701 0
l 243 244
v 26.5054 0.0732233 0
v 26.6579 1.06153 0
l 245 246
v 26.5102 0.100359 0
v 26.7171 1.07872 0
l 247 248
v 26.5021 0.0458652 0
v 26.6001 1.04105 0
l 249 250
v 26.5003 0.0183678 0
v 26.5547 1.01689 0
l 251 252
v 26.5001 0.00918543 0
v 26.5219 1.00895 0
l 253 254
v 26.5013 0.0367107 0
v 26.5883 1.03292 0
l 255 256
v 26.5041 0.0641245 0
v 26.6454 1.05409 0
l 257 258
v 26.5142 0.118285 0
v 26.754 1.08912 0
l 259 260
v 26.5518 0.221659 0
v 27.0079 1.11161 0
l 261 262
v 26.6965 0.397375 0
v 27.4986 0.99453 0
l 263 264
v 26.5 0 0
v 26.5108 0.999942 0
l 265 266
v 27.4522 0.213388 0
v 27.8667 -0.696684 0
l 267 268
v 27.4353 0.246012 0
v 27.9153 -0.631241 0
l 269 270
v 27.4161 0.277308 0
v 27.9613 -0.561007 0
l 271 272
v 27.3946 0.307106 0
v 27.9964 -0.491537 0
l 273 274
v 27.3647 0.342006 0
v 28.0465 -0.389503 0
l 275 276
v 27.3386 0.367862 0
v 28.0681 -0.316152 0
l 277 278
v 27.3107 0.391733 0
v 28.0908 -0.23394 0
l 279 280
v 27.25 0.433013 0
v 28.111 -0.0755287 0
l 281 282
v 27.2811 0.413489 0
v 28.1047 -0.153662 0
l 283 284
v 27.2175 0.450199 0
v 28.1153 0.00969861 0
l 285 286
v 27.1839 0.464956 0
v 28.1102 0.0881859 0
l 287 288
v 27.1493 0.477203 0
v 28.1005 0.168602 0
l 289 290
v 27.1049 0.488882 0
v 28.0804 0.268684 0
l 291 292
v 27.0138 0.49981 0
v 28.0131 0.463208 0
l 293 294
v 27.0413 0.498292 0
v 28.037 0.406157 0
l 295 296
v 26.9679 0.498967 0
v 27.9664 0.554487 0
l 297 298
v 26.9313 0.495261 0
v 27.923 0.623641 0
l 299 300
v 26.9954 0.499979 0
v 27.9954 0.499979 0
l 301 302
v 27.0778 0.493916 0
v 28.064 0.328219 0
l 303 304
v 26.8333 0.471397 0
v 27.7792 0.795752 0
l 305 306
v 26.8684 0.482363 0
v 27.8356 0.736347 0
l 307 308
v 26.7992 0.457887 0
v 27.7179 0.852917 0
l 309 310
v 26.7661 0.441904 0
v 27.6528 0.904181 0
l 311 312
v 26.7343 0.423537 0
v 27.5854 0.948468 0
l 313 314
v 26.7039 0.402883 0
v 27.5132 0.990327 0
l 315 316
v 26.6751 0.380054 0
v 27.4395 1.02478 0
l 317 318
v 26.6229 0.328376 0
v 27.2868 1.07621 0
l 319 320
v 26.6481 0.355174 0
v 27.3657 1.05163 0
l 321 322
v 26.5999 0.299806 0
v 27.2017 1.09845 0
l 323 324
v 26.5789 0.269618 0
v 27.1241 1.10793 0
l 325 326
v 26.556 0.229855 0
v 27.0241 1.11352 0
l 327 328
v 26.5403 0.196633 0
v 26.9429 1.11199 0
l 329 330
v 26.5271 0.16235 0
v 26.8641 1.10386 0
l 331 332
v 26.5164 0.12719 0
v 26.788 1.08961 0
l 333 334
v 26.503 0.0550041 0
v 26.6228 1.0478 0
l 335 336
v 26.5008 0.0275439 0
v 26.5554 1.02605 0
l 337 338
v 26.5084 0.0913436 0
v 26.7043 1.07198 0
l 339 340
v 26.9041 0.490726 0
v 27.8875 0.672067 0
l 341 342
v 26.5008 -0.0275439 0
v 26.4464 0.970976 0
l 343 344
v 26.503 -0.0550041 0
v 26.405 0.940179 0
l 345 346
v 26.5013 -0.0367107 0
v 26.4467 0.961795 0
l 347 348
v 26.5054 -0.0732233 0
v 26.3641 0.91674 0
l 349 350
v 26.5102 -0.100359 0
v 26.3144 0.880275 0
l 351 352
v 26.5121 -0.109341 0
v 26.3052 0.869016 0
l 353 354
v 26.5084 -0.0913436 0
v 26.3342 0.893368 0
l 355 356
v 26.5041 -0.0641245 0
v 26.3843 0.928674 0
l 357 358
v 26.5189 -0.136052 0
v 26.2473 0.826369 0
l 359 360
v 26.5271 -0.16235 0
v 26.2114 0.786524 0
l 361 362
v 26.5214 -0.144868 0
v 26.2485 0.817182 0
l 363 364
v 26.5368 -0.188155 0
v 26.1669 0.74092 0
l 365 366
v 26.5403 -0.196633 0
v 26.1587 0.727698 0
l 367 368
v 26.544 -0.205045 0
v 26.1414 0.710311 0
l 369 370
v 26.5302 -0.17101 0
v 26.1932 0.770505 0
l 371 372
v 26.5164 -0.12719 0
v 26.2766 0.843643 0
l 373 374
v 26.556 -0.229855 0
v 26.0999 0.660099 0
l 375 376
v 26.5693 -0.253967 0
v 26.0687 0.611695 0
l 377 378
v 26.5603 -0.237974 0
v 26.0922 0.645689 0
l 379 380
v 26.5789 -0.269618 0
v 26.0461 0.576605 0
l 381 382
v 26.5944 -0.292404 0
v 26.0173 0.524235 0
l 383 384
v 26.5999 -0.299806 0
v 26.0036 0.502925 0
l 385 386
v 26.5891 -0.284904 0
v 26.0243 0.540294 0
l 387 388
v 26.574 -0.261836 0
v 26.0612 0.596699 0
l 389 390
v 26.617 -0.321394 0
v 25.9773 0.447244 0
l 391 392
v 26.629 -0.335247 0
v 25.9651 0.412587 0
l 393 394
v 26.6416 -0.348648 0
v 25.9534 0.376893 0
l 395 396
v 26.6229 -0.328376 0
v 25.9775 0.435464 0
l 397 398
v 26.6547 -0.361579 0
v 25.9371 0.334878 0
l 399 400
v 26.6751 -0.380054 0
v 25.9222 0.27813 0
l 401 402
v 26.6821 -0.385958 0
v 25.9177 0.25877 0
l 403 404
v 26.6682 -0.374021 0
v 25.927 0.297306 0
l 405 406
v 26.6481 -0.355174 0
v 25.9424 0.353329 0
l 407 408
v 26.6111 -0.314303 0
v 25.9903 0.469662 0
l 409 410
v 26.5518 -0.221659 0
v 26.1164 0.678602 0
l 411 412
v 26.5001 -0.00918543 0
v 26.4893 0.990756 0
l 413 414
v 26.5003 -0.0183678 0
v 26.4785 0.981394 0
l 415 416
v 26.5021 -0.0458652 0
v 26.4151 0.950346 0
l 417 418
v 26.5142 -0.118285 0
v 26.2856 0.855241 0
l 419 420
v 26.5242 -0.153635 0
v 26.22 0.798961 0
l 421 422
v 26.5068 -0.0822973 0
v 26.3543 0.906009 0
l 423 424
v 26.7039 -0.402883 0
v 25.9018 0.194272 0
l 425 426
v 26.7265 -0.418583 0
v 25.8959 0.13824 0
l 427 428
v 26.7113 -0.408255 0
v 25.902 0.179189 0
l 429 430
v 26.7421 -0.428347 0
v 25.891 0.0965837 0
l 431 432
v 26.7661 -0.441904 0
v 25.8861 0.0330536 0
l 433 434
v 26.7742 -0.446127 0
v 25.8875 0.0161496 0
l 435 436
v 26.758 -0.437532 0
v 25.8873 0.0543276 0
l 437 438
v 26.7343 -0.423537 0
v 25.8901 0.112543 0
l 439 440
v 26.7992 -0.457887 0
v 25.8868 -0.048697 0
l 441 442
v 26.5334 -0.179613 0
v 26.1847 0.75763 0
l 443 444
v 26.8076 -0.461499 0
v 25.8889 -0.0664687 0
l 445 446
v 26.7908 -0.45412 0
v 25.8866 -0.0270078 0
l 447 448
v 26.8247 -0.468256 0
v 25.8911 -0.110012 0
l 449 450
v 26.842 -0.47438 0
v 25.8961 -0.150025 0
l 451 452
v 26.8595 -0.479864 0
v 25.9023 -0.190437 0
l 453 454
v 26.8333 -0.471397 0
v 25.894 -0.128337 0
l 455 456
v 26.8684 -0.482363 0
v 25.9056 -0.212024 0
l 457 458
v 26.6965 -0.397375 0
v 25.9094 0.219409 0
l 459 460
v 26.8773 -0.4847 0
v 25.9101 -0.230716 0
l 461 462
v 26.9041 -0.490726 0
v 25.9244 -0.290025 0
l 463 464
v 26.8862 -0.486873 0
v 25.9147 -0.249675 0
l 465 466
v 26.9313 -0.495261 0
v 25.942 -0.349046 0
l 467 468
v 26.9496 -0.49745 0
v 25.9556 -0.38823 0
l 469 470
v 26.9679 -0.498967 0
v 25.9706 -0.425788 0
l 471 472
v 26.9404 -0.496439 0
v 25.9487 -0.368059 0
l 473 474
v 26.9132 -0.492404 0
v 25.9298 -0.311063 0
l 475 476
v 26.9954 -0.499979 0
v 25.9956 -0.481613 0
l 477 478
v 27.0138 -0.49981 0
v 26.014 -0.518176 0
l 479 480
v 27.0413 -0.498292 0
v 26.044 -0.571471 0
l 481 482
v 27.0596 -0.496439 0
v 26.0656 -0.605659 0
l 483 484
v 27.0778 -0.493916 0
v 26.0885 -0.640131 0
l 485 486
v 27.0504 -0.49745 0
v 26.0547 -0.589585 0
l 487 488
v 27.023 -0.499473 0
v 26.0237 -0.536075 0
l 489 490
v 26.977 -0.499473 0
v 25.9785 -0.443953 0
l 491 492
v 27.1049 -0.488882 0
v 26.1252 -0.689583 0
l 493 494
v 27.1227 -0.4847 0
v 26.1512 -0.721898 0
l 495 496
v 27.1138 -0.486873 0
v 26.1383 -0.707071 0
l 497 498
v 27.1493 -0.477203 0
v 26.1921 -0.76663 0
l 499 500
v 27.1753 -0.468256 0
v 26.236 -0.811316 0
l 501 502
v 27.1839 -0.464956 0
v 26.2503 -0.8232 0
l 503 504
v 27.158 -0.47438 0
v 26.2068 -0.782981 0
l 505 506
v 27.1405 -0.479864 0
v 26.1777 -0.750203 0
l 507 508
v 27.2092 -0.45412 0
v 26.2968 -0.86331 0
l 509 510
v 27.2258 -0.446127 0
v 26.328 -0.886627 0
l 511 512
v 27.242 -0.437532 0
v 26.362 -0.91249 0
l 513 514
v 27.2175 -0.450199 0
v 26.3133 -0.877311 0
l 515 516
v 27.2579 -0.428347 0
v 26.3969 -0.936889 0
l 517 518
v 27.2811 -0.413489 0
v 26.4505 -0.970312 0
l 519 520
v 27.2887 -0.408255 0
v 26.4651 -0.975406 0
l 521 522
v 27.2735 -0.418583 0
v 26.4293 -0.954663 0
l 523 524
v 27.25 -0.433013 0
v 26.3793 -0.924873 0
l 525 526
v 27.1924 -0.461499 0
v 26.2661 -0.838269 0
l 527 528
v 27.0868 -0.492404 0
v 26.1006 -0.658101 0
l 529 530
v 27.3107 -0.391733 0
v 26.5236 -1.00852 0
l 531 532
v 27.3318 -0.374021 0
v 26.5789 -1.03221 0
l 533 534
v 27.3179 -0.385958 0
v 26.5378 -1.01163 0
l 535 536
v 27.3453 -0.361579 0
v 26.6158 -1.04559 0
l 537 538
v 27.3647 -0.342006 0
v 26.6765 -1.06755 0
l 539 540
v 27.371 -0.335247 0
v 26.6892 -1.06676 0
l 541 542
v 27.3584 -0.348648 0
v 26.6527 -1.05715 0
l 543 544
v 27.3386 -0.367862 0
v 26.5974 -1.03919 0
l 545 546
v 27.3889 -0.314303 0
v 26.7492 -1.08294 0
l 547 548
v 27.4056 -0.292404 0
v 26.8093 -1.09513 0
l 549 550
v 27.4109 -0.284904 0
v 26.8338 -1.10154 0
l 551 552
v 27.3946 -0.307106 0
v 26.7738 -1.09107 0
l 553 554
v 27.426 -0.261836 0
v 26.8932 -1.10806 0
l 555 556
v 27.4353 -0.246012 0
v 26.9347 -1.11167 0
l 557 558
v 27.4397 -0.237974 0
v 26.9597 -1.11523 0
l 559 560
v 27.4307 -0.253967 0
v 26.9179 -1.1125 0
l 561 562
v 27.4161 -0.277308 0
v 26.8513 -1.10251 0
l 563 564
v 27.383 -0.321394 0
v 26.7376 -1.08523 0
l 565 566
v 27.4522 -0.213388 0
v 27.0168 -1.11365 0
l 567 568
v 27.4632 -0.188155 0
v 27.0816 -1.11249 0
l 569 570
v 27.456 -0.205045 0
v 27.0415 -1.11512 0
l 571 572
v 27.4698 -0.17101 0
v 27.1211 -1.10825 0
l 573 574
v 27.4786 -0.144868 0
v 27.1744 -1.09746 0
l 575 576
v 27.4811 -0.136052 0
v 27.2082 -1.0981 0
l 577 578
v 27.4758 -0.153635 0
v 27.1601 -1.10251 0
l 579 580
v 27.4666 -0.179613 0
v 27.0967 -1.10869 0
l 581 582
v 27.4879 -0.109341 0
v 27.2593 -1.08287 0
l 583 584
v 27.4932 -0.0822973 0
v 27.319 -1.06701 0
l 585 586
v 27.4946 -0.0732233 0
v 27.3421 -1.06153 0
l 587 588
v 27.4898 -0.100359 0
v 27.2829 -1.07872 0
l 589 590
v 27.4979 -0.0458652 0
v 27.3999 -1.04105 0
l 591 592
v 27.4997 -0.0183678 0
v 27.4453 -1.01689 0
l 593 594
v 27.4999 -0.00918543 0
v 27.4781 -1.00895 0
l 595 596
v 27.4987 -0.0367107 0
v 27.4117 -1.03292 0
l 597 598
v 27.4959 -0.0641245 0
v 27.3546 -1.05409 0
l 599 600
v 27.4858 -0.118285 0
v 27.246 -1.08912 0
l 601 602
v 27.4482 -0.221659 0
v 26.9921 -1.11161 0
l 603 604
v 27.3035 -0.397375 0
v 26.5014 -0.99453 0
l 605 606
v 27.5 0 0
v 27.4892 -0.999942 0
l 607 608
v 26.5478 -0.213388 0
v 26.1333 0.696684 0
l 609 610
v 26.5647 -0.246012 0
v 26.0847 0.631241 0
l 611 612
v 26.5839 -0.277308 0
v 26.0387 0.561007 0
l 613 614
v 26.6054 -0.307106 0
v 26.0036 0.491537 0
l 615 616
v 26.6353 -0.342006 0
v 25.9535 0.389503 0
l 617 618
v 26.6614 -0.367862 0
v 25.9319 0.316152 0
l 619 620
v 26.7189 -0.413489 0
v 25.8953 0.153662 0
l 621 622
v 26.75 -0.433013 0
v 25.889 0.0755287 0
l 623 624
v 26.6893 -0.391733 0
v 25.9092 0.23394 0
l 625 626
v 26.7825 -0.450199 0
v 25.8847 -0.00969861 0
l 627 628
v 26.8161 -0.464956 0
v 25.8898 -0.0881859 0
l 629 630
v 26.8507 -0.477203 0
v 25.8995 -0.168602 0
l 631 632
v 26.8951 -0.488882 0
v 25.9196 -0.268684 0
l 633 634
v 26.9222 -0.493916 0
v 25.936 -0.328219 0
l 635 636
v 26.9587 -0.498292 0
v 25.963 -0.406157 0
l 637 638
v 27.0046 -0.499979 0
v 26.0046 -0.499979 0
l 639 640
v 26.9862 -0.49981 0
v 25.9869 -0.463208 0
l 641 642
v 27.0321 -0.498967 0
v 26.0336 -0.554487 0
l 643 644
v 27.0687 -0.495261 0
v 26.077 -0.623641 0
l 645 646
v 27.0959 -0.490726 0
v 26.1125 -0.672067 0
l 647 648
v 27.1316 -0.482363 0
v 26.1644 -0.736347 0
l 649 650
v 27.1667 -0.471397 0
v 26.2208 -0.795752 0
l 651 652
v 27.2008 -0.457887 0
v 26.2821 -0.852917 0
l 653 654
v 27.2339 -0.441904 0
v 26.3472 -0.904181 0
l 655 656
v 27.2657 -0.423537 0
v 26.4146 -0.948468 0
l 657 658
v 27.2961 -0.402883 0
v 26.4868 -0.990327 0
l 659 660
v 27.3519 -0.355174 0
v 26.6343 -1.05163 0
l 661 662
v 27.3771 -0.328376 0
v 26.7132 -1.07621 0
l 663 664
v 27.3249 -0.380054 0
v 26.5605 -1.02478 0
l 665 666
v 27.4001 -0.299806 0
v 26.7983 -1.09845 0
l 667 668
v 27.4211 -0.269618 0
v 26.8759 -1.10793 0
l 669 670
v 27.444 -0.229855 0
v 26.9759 -1.11352 0
l 671 672
v 27.4597 -0.196633 0
v 27.0571 -1.11199 0
l 673 674
v 27.4916 -0.0913436 0
v 27.2957 -1.07198 0
l 675 676
v 27.4836 -0.12719 0
v 27.212 -1.08961 0
l 677 678
v 27.497 -0.0550041 0
v 27.3772 -1.0478 0
l 679 680
v 27.4992 -0.0275439 0
v 27.4446 -1.02605 0
l 681 682
v 27.4729 -0.16235 0
v 27.1359 -1.10386 0
l 683 684
