v 27.4999 0.00918543 0
v 27.5 0 0
l 1 2
v 27.4987 0.0367107 0
v 27.4992 0.0275439 0
l 3 4
v 27.4992 0.0275439 0
v 27.4997 0.0183678 0
l 5 6
v 27.4959 0.0641245 0
v 27.497 0.0550041 0
l 7 8
v 27.4916 0.0913436 0
v 27.4932 0.0822973 0
l 9 10
v 27.4898 0.100359 0
v 27.4916 0.0913436 0
l 11 12
v 27.4946 0.0732233 0
v 27.4959 0.0641245 0
l 13 14
v 27.497 0.0550041 0
v 27.4979 0.0458652 0
l 15 16
v 27.4836 0.12719 0
v 27.4858 0.118285 0
l 17 18
v 27.4786 0.144868 0
v 27.4811 0.136052 0
l 19 20
v 27.4811 0.136052 0
v 27.4836 0.12719 0
l 21 22
v 27.4698 0.17101 0
v 27.4729 0.16235 0
l 23 24
v 27.4632 0.188155 0
v 27.4666 0.179613 0
l 25 26
v 27.4597 0.196633 0
v 27.4632 0.188155 0
l 27 28
v 27.4729 0.16235 0
v 27.4758 0.153635 0
l 29 30
v 27.4879 0.109341 0
v 27.4898 0.100359 0
l 31 32
v 27.4482 0.221659 0
v 27.4522 0.213388 0
l 33 34
v 27.4397 0.237974 0
v 27.444 0.229855 0
l 35 36
v 27.444 0.229855 0
v 27.4482 0.221659 0
l 37 38
v 27.426 0.261836 0
v 27.4307 0.253967 0
l 39 40
v 27.4109 0.284904 0
v 27.4161 0.277308 0
l 41 42
v 27.4056 0.292404 0
v 27.4109 0.284904 0
l 43 44
v 27.4211 0.269618 0
v 27.426 0.261836 0
l 45 46
v 27.4307 0.253967 0
v 27.4353 0.246012 0
l 47 48
v 27.3889 0.314303 0
v 27.3946 0.307106 0
l 49 50
v 27.3771 0.328376 0
v 27.383 0.321394 0
l 51 52
v 27.371 0.335247 0
v 27.3771 0.328376 0
l 53 54
v 27.383 0.321394 0
v 27.3889 0.314303 0
l 55 56
v 27.3519 0.355174 0
v 27.3584 0.348648 0
l 57 58
v 27.3318 0.374021 0
v 27.3386 0.367862 0
l 59 60
v 27.3249 0.380054 0
v 27.3318 0.374021 0
l 61 62
v 27.3453 0.361579 0
v 27.3519 0.355174 0
l 63 64
v 27.3584 0.348648 0
v 27.3647 0.342006 0
l 65 66
v 27.4001 0.299806 0
v 27.4056 0.292404 0
l 67 68
v 27.456 0.205045 0
v 27.4597 0.196633 0
l 69 70
v 27.4997 0.0183678 0
v 27.4999 0.00918543 0
l 71 72
v 27.4979 0.0458652 0
v 27.4987 0.0367107 0
l 73 74
v 27.4858 0.118285 0
v 27.4879 0.109341 0
l 75 76
v 27.4758 0.153635 0
v 27.4786 0.144868 0
l 77 78
v 27.4932 0.0822973 0
v 27.4946 0.0732233 0
l 79 80
v 27.3035 0.397375 0
v 27.3107 0.391733 0
l 81 82
v 27.2887 0.408255 0
v 27.2961 0.402883 0
l 83 84
v 27.2961 0.402883 0
v 27.3035 0.397375 0
l 85 86
v 27.2657 0.423537 0
v 27.2735 0.418583 0
l 87 88
v 27.242 0.437532 0
v 27.25 0.433013 0
l 89 90
v 27.2339 0.441904 0
v 27.242 0.437532 0
l 91 92
v 27.2579 0.428347 0
v 27.2657 0.423537 0
l 93 94
v 27.2735 0.418583 0
v 27.2811 0.413489 0
l 95 96
v 27.2092 0.45412 0
v 27.2175 0.450199 0
l 97 98
v 27.4666 0.179613 0
v 27.4698 0.17101 0
l 99 100
v 27.2008 0.457887 0
v 27.2092 0.45412 0
l 101 102
v 27.1924 0.461499 0
v 27.2008 0.457887 0
l 103 104
v 27.2258 0.446127 0
v 27.2339 0.441904 0
l 105 106
v 27.1753 0.468256 0
v 27.1839 0.464956 0
l 107 108
v 27.158 0.47438 0
v 27.1667 0.471397 0
l 109 110
v 27.1405 0.479864 0
v 27.1493 0.477203 0
l 111 112
v 27.1667 0.471397 0
v 27.1753 0.468256 0
l 113 114
v 27.1316 0.482363 0
v 27.1405 0.479864 0
l 115 116
v 27.3179 0.385958 0
v 27.3249 0.380054 0
l 117 118
v 27.1227 0.4847 0
v 27.1316 0.482363 0
l 119 120
v 27.0959 0.490726 0
v 27.1049 0.488882 0
l 121 122
v 27.1138 0.486873 0
v 27.1227 0.4847 0
l 123 124
v 27.0687 0.495261 0
v 27.0778 0.493916 0
l 125 126
v 27.0504 0.49745 0
v 27.0596 0.496439 0
l 127 128
v 27.0321 0.498967 0
v 27.0413 0.498292 0
l 129 130
v 27.0596 0.496439 0
v 27.0687 0.495261 0
l 131 132
v 27.0868 0.492404 0
v 27.0959 0.490726 0
l 133 134
v 27.0046 0.499979 0
v 27.0138 0.49981 0
l 135 136
v 26.9862 0.49981 0
v 26.9954 0.499979 0
l 137 138
v 26.9587 0.498292 0
v 26.9679 0.498967 0
l 139 140
v 26.9404 0.496439 0
v 26.9496 0.49745 0
l 141 142
v 26.9222 0.493916 0
v 26.9313 0.495261 0
l 143 144
v 26.9496 0.49745 0
v 26.9587 0.498292 0
l 145 146
v 26.977 0.499473 0
v 26.9862 0.49981 0
l 147 148
v 27.023 0.499473 0
v 27.0321 0.498967 0
l 149 150
v 26.8951 0.488882 0
v 26.9041 0.490726 0
l 151 152
v 26.8773 0.4847 0
v 26.8862 0.486873 0
l 153 154
v 26.8862 0.486873 0
v 26.8951 0.488882 0
l 155 156
v 26.8507 0.477203 0
v 26.8595 0.479864 0
l 157 158
v 26.8247 0.468256 0
v 26.8333 0.471397 0
l 159 160
v 26.8161 0.464956 0
v 26.8247 0.468256 0
l 161 162
v 26.842 0.47438 0
v 26.8507 0.477203 0
l 163 164
v 26.8595 0.479864 0
v 26.8684 0.482363 0
l 165 166
v 26.7908 0.45412 0
v 26.7992 0.457887 0
l 167 168
v 26.7742 0.446127 0
v 26.7825 0.450199 0
l 169 170
v 26.758 0.437532 0
v 26.7661 0.441904 0
l 171 172
v 26.7825 0.450199 0
v 26.7908 0.45412 0
l 173 174
v 26.7421 0.428347 0
v 26.75 0.433013 0
l 175 176
v 26.7189 0.413489 0
v 26.7265 0.418583 0
l 177 178
v 26.7113 0.408255 0
v 26.7189 0.413489 0
l 179 180
v 26.7265 0.418583 0
v 26.7343 0.423537 0
l 181 182
v 26.75 0.433013 0
v 26.758 0.437532 0
l 183 184
v 26.8076 0.461499 0
v 26.8161 0.464956 0
l 185 186
v 26.9132 0.492404 0
v 26.9222 0.493916 0
l 187 188
v 26.6893 0.391733 0
v 26.6965 0.397375 0
l 189 190
v 26.6682 0.374021 0
v 26.6751 0.380054 0
l 191 192
v 26.6821 0.385958 0
v 26.6893 0.391733 0
l 193 194
v 26.6547 0.361579 0
v 26.6614 0.367862 0
l 195 196
v 26.6353 0.342006 0
v 26.6416 0.348648 0
l 197 198
v 26.629 0.335247 0
v 26.6353 0.342006 0
l 199 200
v 26.6416 0.348648 0
v 26.6481 0.355174 0
l 201 202
v 26.6614 0.367862 0
v 26.6682 0.374021 0
l 203 204
v 26.6111 0.314303 0
v 26.617 0.321394 0
l 205 206
v 26.5944 0.292404 0
v 26.5999 0.299806 0
l 207 208
v 26.5891 0.284904 0
v 26.5944 0.292404 0
l 209 210
v 26.6054 0.307106 0
v 26.6111 0.314303 0
l 211 212
v 26.574 0.261836 0
v 26.5789 0.269618 0
l 213 214
v 26.5647 0.246012 0
v 26.5693 0.253967 0
l 215 216
v 26.5603 0.237974 0
v 26.5647 0.246012 0
l 217 218
v 26.5693 0.253967 0
v 26.574 0.261836 0
l 219 220
v 26.5839 0.277308 0
v 26.5891 0.284904 0
l 221 222
v 26.617 0.321394 0
v 26.6229 0.328376 0
l 223 224
v 26.5478 0.213388 0
v 26.5518 0.221659 0
l 225 226
v 26.5368 0.188155 0
v 26.5403 0.196633 0
l 227 228
v 26.544 0.205045 0
v 26.5478 0.213388 0
l 229 230
v 26.5302 0.17101 0
v 26.5334 0.179613 0
l 231 232
v 26.5214 0.144868 0
v 26.5242 0.153635 0
l 233 234
v 26.5189 0.136052 0
v 26.5214 0.144868 0
l 235 236
v 26.5242 0.153635 0
v 26.5271 0.16235 0
l 237 238
v 26.5334 0.179613 0
v 26.5368 0.188155 0
l 239 240
v 26.5121 0.109341 0
v 26.5142 0.118285 0
l 241 242
v 26.5068 0.0822973 0
v 26.5084 0.0913436 0
l 243 244
v 26.5054 0.0732233 0
v 26.5068 0.0822973 0
l 245 246
v 26.5102 0.100359 0
v 26.5121 0.109341 0
l 247 248
v 26.5021 0.0458652 0
v 26.503 0.0550041 0
l 249 250
v 26.5003 0.0183678 0
v 26.5008 0.0275439 0
l 251 252
v 26.5001 0.00918543 0
v 26.5003 0.0183678 0
l 253 254
v 26.5013 0.0367107 0
v 26.5021 0.0458652 0
l 255 256
v 26.5041 0.0641245 0
v 26.5054 0.0732233 0
l 257 258
v 26.5142 0.118285 0
v 26.5164 0.12719 0
l 259 260
v 26.5518 0.221659 0
v 26.556 0.229855 0
l 261 262
v 26.6965 0.397375 0
v 26.7039 0.402883 0
l 263 264
v 26.5 0 0
v 26.5001 0.00918543 0
l 265 266
v 27.4522 0.213388 0
v 27.456 0.205045 0
l 267 268
v 27.4353 0.246012 0
v 27.4397 0.237974 0
l 269 270
v 27.4161 0.277308 0
v 27.4211 0.269618 0
l 271 272
v 27.3946 0.307106 0
v 27.4001 0.299806 0
l 273 274
v 27.3647 0.342006 0
v 27.371 0.335247 0
l 275 276
v 27.3386 0.367862 0
v 27.3453 0.361579 0
l 277 278
v 27.3107 0.391733 0
v 27.3179 0.385958 0
l 279 280
v 27.25 0.433013 0
v 27.2579 0.428347 0
l 281 282
v 27.2811 0.413489 0
v 27.2887 0.408255 0
l 283 284
v 27.2175 0.450199 0
v 27.2258 0.446127 0
l 285 286
v 27.1839 0.464956 0
v 27.1924 0.461499 0
l 287 288
v 27.1493 0.477203 0
v 27.158 0.47438 0
l 289 290
v 27.1049 0.488882 0
v 27.1138 0.486873 0
l 291 292
v 27.0138 0.49981 0
v 27.023 0.499473 0
l 293 294
v 27.0413 0.498292 0
v 27.0504 0.49745 0
l 295 296
v 26.9679 0.498967 0
v 26.977 0.499473 0
l 297 298
v 26.9313 0.495261 0
v 26.9404 0.496439 0
l 299 300
v 26.9954 0.499979 0
v 27.0046 0.499979 0
l 301 302
v 27.0778 0.493916 0
v 27.0868 0.492404 0
l 303 304
v 26.8333 0.471397 0
v 26.842 0.47438 0
l 305 306
v 26.8684 0.482363 0
v 26.8773 0.4847 0
l 307 308
v 26.7992 0.457887 0
v 26.8076 0.461499 0
l 309 310
v 26.7661 0.441904 0
v 26.7742 0.446127 0
l 311 312
v 26.7343 0.423537 0
v 26.7421 0.428347 0
l 313 314
v 26.7039 0.402883 0
v 26.7113 0.408255 0
l 315 316
v 26.6751 0.380054 0
v 26.6821 0.385958 0
l 317 318
v 26.6229 0.328376 0
v 26.629 0.335247 0
l 319 320
v 26.6481 0.355174 0
v 26.6547 0.361579 0
l 321 322
v 26.5999 0.299806 0
v 26.6054 0.307106 0
l 323 324
v 26.5789 0.269618 0
v 26.5839 0.277308 0
l 325 326
v 26.556 0.229855 0
v 26.5603 0.237974 0
l 327 328
v 26.5403 0.196633 0
v 26.544 0.205045 0
l 329 330
v 26.5271 0.16235 0
v 26.5302 0.17101 0
l 331 332
v 26.5164 0.12719 0
v 26.5189 0.136052 0
l 333 334
v 26.503 0.0550041 0
v 26.5041 0.0641245 0
l 335 336
v 26.5008 0.0275439 0
v 26.5013 0.0367107 0
l 337 338
v 26.5084 0.0913436 0
v 26.5102 0.100359 0
l 339 340
v 26.9041 0.490726 0
v 26.9132 0.492404 0
l 341 342
v 26.5008 -0.0275439 0
v 26.5003 -0.0183678 0
l 343 344
v 26.503 -0.0550041 0
v 26.5021 -0.0458652 0
l 345 346
v 26.5013 -0.0367107 0
v 26.5008 -0.0275439 0
l 347 348
v 26.5054 -0.0732233 0
v 26.5041 -0.0641245 0
l 349 350
v 26.5102 -0.100359 0
v 26.5084 -0.0913436 0
l 351 352
v 26.5121 -0.109341 0
v 26.5102 -0.100359 0
l 353 354
v 26.5084 -0.0913436 0
v 26.5068 -0.0822973 0
l 355 356
v 26.5041 -0.0641245 0
v 26.503 -0.0550041 0
l 357 358
v 26.5189 -0.136052 0
v 26.5164 -0.12719 0
l 359 360
v 26.5271 -0.16235 0
v 26.5242 -0.153635 0
l 361 362
v 26.5214 -0.144868 0
v 26.5189 -0.136052 0
l 363 364
v 26.5368 -0.188155 0
v 26.5334 -0.179613 0
l 365 366
v 26.5403 -0.196633 0
v 26.5368 -0.188155 0
l 367 368
v 26.544 -0.205045 0
v 26.5403 -0.196633 0
l 369 370
v 26.5302 -0.17101 0
v 26.5271 -0.16235 0
l 371 372
v 26.5164 -0.12719 0
v 26.5142 -0.118285 0
l 373 374
v 26.556 -0.229855 0
v 26.5518 -0.221659 0
l 375 376
v 26.5693 -0.253967 0
v 26.5647 -0.246012 0
l 377 378
v 26.5603 -0.237974 0
v 26.556 -0.229855 0
l 379 380
v 26.5789 -0.269618 0
v 26.574 -0.261836 0
l 381 382
v 26.5944 -0.292404 0
v 26.5891 -0.284904 0
l 383 384
v 26.5999 -0.299806 0
v 26.5944 -0.292404 0
l 385 386
v 26.5891 -0.284904 0
v 26.5839 -0.277308 0
l 387 388
v 26.574 -0.261836 0
v 26.5693 -0.253967 0
l 389 390
v 26.617 -0.321394 0
v 26.6111 -0.314303 0
l 391 392
v 26.629 -0.335247 0
v 26.6229 -0.328376 0
l 393 394
v 26.6416 -0.348648 0
v 26.6353 -0.342006 0
l 395 396
v 26.6229 -0.328376 0
v 26.617 -0.321394 0
l 397 398
v 26.6547 -0.361579 0
v 26.6481 -0.355174 0
l 399 400
v 26.6751 -0.380054 0
v 26.6682 -0.374021 0
l 401 402
v 26.6821 -0.385958 0
v 26.6751 -0.380054 0
l 403 404
v 26.6682 -0.374021 0
v 26.6614 -0.367862 0
l 405 406
v 26.6481 -0.355174 0
v 26.6416 -0.348648 0
l 407 408
v 26.6111 -0.314303 0
v 26.6054 -0.307106 0
l 409 410
v 26.5518 -0.221659 0
v 26.5478 -0.213388 0
l 411 412
v 26.5001 -0.00918543 0
v 26.5 0 0
l 413 414
v 26.5003 -0.0183678 0
v 26.5001 -0.00918543 0
l 415 416
v 26.5021 -0.0458652 0
v 26.5013 -0.0367107 0
l 417 418
v 26.5142 -0.118285 0
v 26.5121 -0.109341 0
l 419 420
v 26.5242 -0.153635 0
v 26.5214 -0.144868 0
l 421 422
v 26.5068 -0.0822973 0
v 26.5054 -0.0732233 0
l 423 424
v 26.7039 -0.402883 0
v 26.6965 -0.397375 0
l 425 426
v 26.7265 -0.418583 0
v 26.7189 -0.413489 0
l 427 428
v 26.7113 -0.408255 0
v 26.7039 -0.402883 0
l 429 430
v 26.7421 -0.428347 0
v 26.7343 -0.423537 0
l 431 432
v 26.7661 -0.441904 0
v 26.758 -0.437532 0
l 433 434
v 26.7742 -0.446127 0
v 26.7661 -0.441904 0
l 435 436
v 26.758 -0.437532 0
v 26.75 -0.433013 0
l 437 438
v 26.7343 -0.423537 0
v 26.7265 -0.418583 0
l 439 440
v 26.7992 -0.457887 0
v 26.7908 -0.45412 0
l 441 442
v 26.5334 -0.179613 0
v 26.5302 -0.17101 0
l 443 444
v 26.8076 -0.461499 0
v 26.7992 -0.457887 0
l 445 446
v 26.7908 -0.45412 0
v 26.7825 -0.450199 0
l 447 448
v 26.8247 -0.468256 0
v 26.8161 -0.464956 0
l 449 450
v 26.842 -0.47438 0
v 26.8333 -0.471397 0
l 451 452
v 26.8595 -0.479864 0
v 26.8507 -0.477203 0
l 453 454
v 26.8333 -0.471397 0
v 26.8247 -0.468256 0
l 455 456
v 26.8684 -0.482363 0
v 26.8595 -0.479864 0
l 457 458
v 26.6965 -0.397375 0
v 26.6893 -0.391733 0
l 459 460
v 26.8773 -0.4847 0
v 26.8684 -0.482363 0
l 461 462
v 26.9041 -0.490726 0
v 26.8951 -0.488882 0
l 463 464
v 26.8862 -0.486873 0
v 26.8773 -0.4847 0
l 465 466
v 26.9313 -0.495261 0
v 26.9222 -0.493916 0
l 467 468
v 26.9496 -0.49745 0
v 26.9404 -0.496439 0
l 469 470
v 26.9679 -0.498967 0
v 26.9587 -0.498292 0
l 471 472
v 26.9404 -0.496439 0
v 26.9313 -0.495261 0
l 473 474
v 26.9132 -0.492404 0
v 26.9041 -0.490726 0
l 475 476
v 26.9954 -0.499979 0
v 26.9862 -0.49981 0
l 477 478
v 27.0138 -0.49981 0
v 27.0046 -0.499979 0
l 479 480
v 27.0413 -0.498292 0
v 27.0321 -0.498967 0
l 481 482
v 27.0596 -0.496439 0
v 27.0504 -0.49745 0
l 483 484
v 27.0778 -0.493916 0
v 27.0687 -0.495261 0
l 485 486
v 27.0504 -0.49745 0
v 27.0413 -0.498292 0
l 487 488
v 27.023 -0.499473 0
v 27.0138 -0.49981 0
l 489 490
v 26.977 -0.499473 0
v 26.9679 -0.498967 0
l 491 492
v 27.1049 -0.488882 0
v 27.0959 -0.490726 0
l 493 494
v 27.1227 -0.4847 0
v 27.1138 -0.486873 0
l 495 496
v 27.1138 -0.486873 0
v 27.1049 -0.488882 0
l 497 498
v 27.1493 -0.477203 0
v 27.1405 -0.479864 0
l 499 500
v 27.1753 -0.468256 0
v 27.1667 -0.471397 0
l 501 502
v 27.1839 -0.464956 0
v 27.1753 -0.468256 0
l 503 504
v 27.158 -0.47438 0
v 27.1493 -0.477203 0
l 505 506
v 27.1405 -0.479864 0
v 27.1316 -0.482363 0
l 507 508
v 27.2092 -0.45412 0
v 27.2008 -0.457887 0
l 509 510
v 27.2258 -0.446127 0
v 27.2175 -0.450199 0
l 511 512
v 27.242 -0.437532 0
v 27.2339 -0.441904 0
l 513 514
v 27.2175 -0.450199 0
v 27.2092 -0.45412 0
l 515 516
v 27.2579 -0.428347 0
v 27.25 -0.433013 0
l 517 518
v 27.2811 -0.413489 0
v 27.2735 -0.418583 0
l 519 520
v 27.2887 -0.408255 0
v 27.2811 -0.413489 0
l 521 522
v 27.2735 -0.418583 0
v 27.2657 -0.423537 0
l 523 524
v 27.25 -0.433013 0
v 27.242 -0.437532 0
l 525 526
v 27.1924 -0.461499 0
v 27.1839 -0.464956 0
l 527 528
v 27.0868 -0.492404 0
v 27.0778 -0.493916 0
l 529 530
v 27.3107 -0.391733 0
v 27.3035 -0.397375 0
l 531 532
v 27.3318 -0.374021 0
v 27.3249 -0.380054 0
l 533 534
v 27.3179 -0.385958 0
v 27.3107 -0.391733 0
l 535 536
v 27.3453 -0.361579 0
v 27.3386 -0.367862 0
l 537 538
v 27.3647 -0.342006 0
v 27.3584 -0.348648 0
l 539 540
v 27.371 -0.335247 0
v 27.3647 -0.342006 0
l 541 542
v 27.3584 -0.348648 0
v 27.3519 -0.355174 0
l 543 544
v 27.3386 -0.367862 0
v 27.3318 -0.374021 0
l 545 546
v 27.3889 -0.314303 0
v 27.383 -0.321394 0
l 547 548
v 27.4056 -0.292404 0
v 27.4001 -0.299806 0
l 549 550
v 27.4109 -0.284904 0
v 27.4056 -0.292404 0
l 551 552
v 27.3946 -0.307106 0
v 27.3889 -0.314303 0
l 553 554
v 27.426 -0.261836 0
v 27.4211 -0.269618 0
l 555 556
v 27.4353 -0.246012 0
v 27.4307 -0.253967 0
l 557 558
v 27.4397 -0.237974 0
v 27.4353 -0.246012 0
l 559 560
v 27.4307 -0.253967 0
v 27.426 -0.261836 0
l 561 562
v 27.4161 -0.277308 0
v 27.4109 -0.284904 0
l 563 564
v 27.383 -0.321394 0
v 27.3771 -0.328376 0
l 565 566
v 27.4522 -0.213388 0
v 27.4482 -0.221659 0
l 567 568
v 27.4632 -0.188155 0
v 27.4597 -0.196633 0
l 569 570
v 27.456 -0.205045 0
v 27.4522 -0.213388 0
l 571 572
v 27.4698 -0.17101 0
v 27.4666 -0.179613 0
l 573 574
v 27.4786 -0.144868 0
v 27.4758 -0.153635 0
l 575 576
v 27.4811 -0.136052 0
v 27.4786 -0.144868 0
l 577 578
v 27.4758 -0.153635 0
v 27.4729 -0.16235 0
l 579 580
v 27.4666 -0.179613 0
v 27.4632 -0.188155 0
l 581 582
v 27.4879 -0.109341 0
v 27.4858 -0.118285 0
l 583 584
v 27.4932 -0.0822973 0
v 27.4916 -0.0913436 0
l 585 586
v 27.4946 -0.0732233 0
v 27.4932 -0.0822973 0
l 587 588
v 27.4898 -0.100359 0
v 27.4879 -0.109341 0
l 589 590
v 27.4979 -0.0458652 0
v 27.497 -0.0550041 0
l 591 592
v 27.4997 -0.0183678 0
v 27.4992 -0.0275439 0
l 593 594
v 27.4999 -0.00918543 0
v 27.4997 -0.0183678 0
l 595 596
v 27.4987 -0.0367107 0
v 27.4979 -0.0458652 0
l 597 598
v 27.4959 -0.0641245 0
v 27.4946 -0.0732233 0
l 599 600
v 27.4858 -0.118285 0
v 27.4836 -0.12719 0
l 601 602
v 27.4482 -0.221659 0
v 27.444 -0.229855 0
l 603 604
v 27.3035 -0.397375 0
v 27.2961 -0.402883 0
l 605 606
v 27.5 0 0
v 27.4999 -0.00918543 0
l 607 608
v 26.5478 -0.213388 0
v 26.544 -0.205045 0
l 609 610
v 26.5647 -0.246012 0
v 26.5603 -0.237974 0
l 611 612
v 26.5839 -0.277308 0
v 26.5789 -0.269618 0
l 613 614
v 26.6054 -0.307106 0
v 26.5999 -0.299806 0
l 615 616
v 26.6353 -0.342006 0
v 26.629 -0.335247 0
l 617 618
v 26.6614 -0.367862 0
v 26.6547 -0.361579 0
l 619 620
v 26.7189 -0.413489 0
v 26.7113 -0.408255 0
l 621 622
v 26.75 -0.433013 0
v 26.7421 -0.428347 0
l 623 624
v 26.6893 -0.391733 0
v 26.6821 -0.385958 0
l 625 626
v 26.7825 -0.450199 0
v 26.7742 -0.446127 0
l 627 628
v 26.8161 -0.464956 0
v 26.8076 -0.461499 0
l 629 630
v 26.8507 -0.477203 0
v 26.842 -0.47438 0
l 631 632
v 26.8951 -0.488882 0
v 26.8862 -0.486873 0
l 633 634
v 26.9222 -0.493916 0
v 26.9132 -0.492404 0
l 635 636
v 26.9587 -0.498292 0
v 26.9496 -0.49745 0
l 637 638
v 27.0046 -0.499979 0
v 26.9954 -0.499979 0
l 639 640
v 26.9862 -0.49981 0
v 26.977 -0.499473 0
l 641 642
v 27.0321 -0.498967 0
v 27.023 -0.499473 0
l 643 644
v 27.0687 -0.495261 0
v 27.0596 -0.496439 0
l 645 646
v 27.0959 -0.490726 0
v 27.0868 -0.492404 0
l 647 648
v 27.1316 -0.482363 0
v 27.1227 -0.4847 0
l 649 650
v 27.1667 -0.471397 0
v 27.158 -0.47438 0
l 651 652
v 27.2008 -0.457887 0
v 27.1924 -0.461499 0
l 653 654
v 27.2339 -0.441904 0
v 27.2258 -0.446127 0
l 655 656
v 27.2657 -0.423537 0
v 27.2579 -0.428347 0
l 657 658
v 27.2961 -0.402883 0
v 27.2887 -0.408255 0
l 659 660
v 27.3519 -0.355174 0
v 27.3453 -0.361579 0
l 661 662
v 27.3771 -0.328376 0
v 27.371 -0.335247 0
l 663 664
v 27.3249 -0.380054 0
v 27.3179 -0.385958 0
l 665 666
v 27.4001 -0.299806 0
v 27.3946 -0.307106 0
l 667 668
v 27.4211 -0.269618 0
v 27.4161 -0.277308 0
l 669 670
v 27.444 -0.229855 0
v 27.4397 -0.237974 0
l 671 672
v 27.4597 -0.196633 0
v 27.456 -0.205045 0
l 673 674
v 27.4916 -0.0913436 0
v 27.4898 -0.100359 0
l 675 676
v 27.4836 -0.12719 0
v 27.4811 -0.136052 0
l 677 678
v 27.497 -0.0550041 0
v 27.4959 -0.0641245 0
l 679 680
v 27.4992 -0.0275439 0
v 27.4987 -0.0367107 0
l 681 682
v 27.4729 -0.16235 0
v 27.4698 -0.17101 0
l 683 684
